<?xml version="1.0" encoding="utf-8"?>
<svg viewBox="-0.03 -0.158 24 24" fill="none" xmlns="http://www.w3.org/2000/svg" width="24" height="24" xmlns:bx="https://boxy-svg.com"><defs><bx:export><bx:file format="svg" path="arc site.svg"/></bx:export></defs><path d="M 22.754 14.892 L 22.746 8.892 C 22.738 3.462 20.414 1.165 14.985 1.22 L 8.985 1.28 C 3.555 1.335 1.238 3.678 1.246 9.108 L 1.254 15.108 C 1.262 20.538 3.586 22.835 9.015 22.78 L 15.015 22.72 C 20.445 22.665 22.762 20.322 22.754 14.892 Z M 2.746 9.093 C 2.739 4.483 4.377 2.827 8.987 2.78 L 14.987 2.72 C 19.597 2.673 21.239 4.297 21.246 8.907 L 21.254 14.907 C 21.261 19.517 19.623 21.173 15.013 21.22 L 9.013 21.28 C 4.403 21.327 2.761 19.703 2.754 15.093 L 2.746 9.093 Z" style="transform-origin: 12px 12px; fill: rgb(255, 255, 255);"/><path d="M 18.34 9.438 L 16.489 9.452 C 16.152 10.484 15.197 11.243 14.071 11.255 C 12.854 11.267 11.834 10.406 11.579 9.245 C 11.48 9.284 11.358 9.306 11.209 9.305 L 5.856 9.274 C 5.293 9.271 5.151 9.039 5.152 8.723 C 5.153 8.408 5.295 8.118 5.859 8.121 L 11.21 8.152 C 11.35 8.153 11.467 8.165 11.563 8.189 C 11.787 6.986 12.821 6.068 14.064 6.056 C 15.339 6.042 16.397 6.986 16.587 8.23 L 18.338 8.217 C 18.762 8.213 18.964 8.487 18.965 8.82 C 18.965 9.162 18.763 9.433 18.34 9.438 Z M 14.07 10.091 C 14.847 10.082 15.478 9.432 15.476 8.64 C 15.475 7.849 14.842 7.211 14.066 7.22 C 13.291 7.228 12.659 7.878 12.66 8.669 C 12.662 9.453 13.295 10.099 14.07 10.091 Z" style="fill: rgb(255, 255, 255); stroke-width: 31px;"/><path d="M 17.978 14.316 L 16.164 14.302 C 15.835 13.27 14.899 12.511 13.796 12.499 C 12.602 12.487 11.604 13.348 11.355 14.509 C 11.258 14.47 11.138 14.448 10.992 14.449 L 5.747 14.48 C 5.196 14.483 5.058 14.715 5.059 15.031 C 5.06 15.346 5.199 15.636 5.751 15.633 L 10.993 15.602 C 11.13 15.601 11.245 15.589 11.339 15.565 C 11.559 16.768 12.572 17.686 13.789 17.698 C 15.038 17.712 16.074 16.768 16.262 15.524 L 17.976 15.537 C 18.391 15.541 18.589 15.267 18.59 14.934 C 18.59 14.592 18.393 14.321 17.978 14.316 Z M 13.795 13.663 C 14.555 13.672 15.174 14.322 15.172 15.114 C 15.171 15.905 14.55 16.543 13.791 16.534 C 13.031 16.526 12.413 15.876 12.414 15.085 C 12.416 14.301 13.034 13.655 13.795 13.663 Z" style="fill: rgb(255, 255, 255); stroke-width: 31px; transform-box: fill-box; transform-origin: 50% 50%;" transform="matrix(-1, 0, 0, -1, 0.000002, 0.000001)"/></svg>