<?xml version="1.0" encoding="utf-8"?>
<svg viewBox="57.952 45.721 24 24" fill="none" xmlns="http://www.w3.org/2000/svg" width="24" height="24" xmlns:bx="https://boxy-svg.com"><defs><bx:export><bx:file format="svg" path="fill site.svg"/></bx:export></defs><path d="M 79.333 52.766 C 79.951 54.14 79.742 62.673 79.374 61.856 C 79.682 64.781 77.666 67.257 74.386 66.594 C 74.386 67.084 65.698 67.668 65.698 66.844 C 62.491 67.434 60.687 64.663 60.96 61.773 C 60.02 61.896 59.172 53.097 60.752 52.891 C 60 50.79 61.408 49.653 62.911 49.017 C 61.256 49.908 60.6 51.643 60.604 54.565 C 60.604 54.81 60.612 60.977 60.612 60.565 C 61.666 64.546 62.267 66.796 66.871 66.752 L 72.871 66.692 C 77.481 66.645 79.119 64.989 79.112 60.379 L 79.104 54.379 C 79.099 51.406 78.415 49.675 76.694 48.833 C 78.388 49.671 79.517 51.074 79.333 52.766 Z M 72.873 68.192 L 66.873 68.252 C 61.444 68.307 59.12 66.01 59.112 60.58 L 59.104 54.58 C 59.096 49.15 61.413 46.807 66.843 46.752 L 72.843 46.692 C 78.272 46.637 80.596 48.934 80.604 54.364 L 80.612 60.364 C 80.62 65.794 78.303 68.137 72.873 68.192 Z M 76.983 61.287 C 76.982 60.877 76.642 60.54 76.232 60.545 L 72.332 60.584 C 71.922 60.588 71.583 60.931 71.583 61.341 C 71.584 61.751 71.924 62.088 72.334 62.084 L 76.234 62.045 C 76.644 62.04 76.984 61.697 76.983 61.287 Z M 65.931 61.398 L 65.931 61.397 C 65.931 60.378 66.76 59.541 67.778 59.531 C 68.797 59.52 69.629 60.342 69.63 61.362 C 69.632 62.382 68.803 63.22 67.783 63.231 C 66.764 63.241 65.934 62.41 65.931 61.4 C 65.931 61.399 65.931 61.399 65.931 61.398 Z M 63.23 60.675 C 62.82 60.68 62.481 61.023 62.481 61.433 C 62.482 61.843 62.822 62.18 63.232 62.175 L 64.516 62.162 C 64.859 63.648 66.193 64.747 67.785 64.731 C 69.635 64.712 71.133 63.187 71.13 61.347 C 71.127 59.497 69.625 58.012 67.775 58.031 C 66.184 58.046 64.854 59.17 64.515 60.662 L 63.23 60.675 Z M 76.972 54.127 C 76.971 53.717 76.631 53.38 76.221 53.385 L 74.937 53.398 C 74.594 51.912 73.26 50.815 71.668 50.83 C 69.818 50.849 68.32 52.364 68.323 54.214 C 68.326 56.064 69.828 57.549 71.678 57.53 C 73.27 57.515 74.601 56.39 74.94 54.898 L 76.223 54.885 C 76.633 54.88 76.972 54.547 76.972 54.127 Z M 73.522 54.162 C 73.522 54.173 73.522 54.184 73.523 54.195 C 73.506 55.2 72.684 56.02 71.675 56.03 C 70.656 56.041 69.824 55.229 69.823 54.199 C 69.821 53.179 70.65 52.341 71.67 52.33 C 72.679 52.32 73.503 53.124 73.523 54.129 C 73.522 54.14 73.522 54.151 73.522 54.162 Z M 67.871 54.219 C 67.87 53.809 67.53 53.472 67.12 53.476 L 63.22 53.515 C 62.81 53.52 62.47 53.863 62.471 54.273 C 62.472 54.683 62.812 55.02 63.222 55.015 L 67.122 54.976 C 67.532 54.972 67.871 54.639 67.871 54.219 Z" style="stroke: rgb(157, 90, 90); stroke-width: 0px; fill: rgb(255, 255, 255);"/><rect x="-55.312" y="47.91" width="41.859" height="28.433" style="fill: rgb(216, 216, 216); stroke: rgb(0, 0, 0);"/><path d="M -24.239 20.421 L -24.247 14.421 C -24.255 8.991 -26.579 6.694 -32.008 6.749 L -38.008 6.809 C -43.438 6.864 -45.755 9.207 -45.747 14.637 L -45.739 20.637 C -45.731 26.067 -43.407 28.364 -37.978 28.309 L -31.978 28.249 C -26.548 28.194 -24.231 25.851 -24.239 20.421 Z M -44.247 14.622 C -44.254 10.012 -42.616 8.356 -38.006 8.309 L -32.006 8.249 C -27.396 8.202 -25.754 9.826 -25.747 14.436 L -25.739 20.436 C -25.732 25.046 -27.37 26.702 -31.98 26.749 L -37.98 26.809 C -42.59 26.856 -44.232 25.232 -44.239 20.622 L -44.247 14.622 Z" style="fill: rgb(255, 255, 255); transform-origin: -34.993px 17.529px;"/><path d="M 67.884 27.942 L 67.875 20.838 C 67.866 14.41 65.134 11.69 58.753 11.755 L 51.702 11.826 C 45.32 11.891 42.597 14.666 42.606 21.093 L 42.615 28.197 C 42.624 34.625 45.356 37.345 51.737 37.28 L 58.789 37.209 C 65.17 37.144 67.893 34.369 67.884 27.942 Z M 44.369 21.077 C 44.361 15.618 46.286 13.658 51.704 13.601 L 58.756 13.531 C 64.174 13.476 66.103 15.397 66.112 20.856 L 66.121 27.958 C 66.129 33.417 64.204 35.376 58.786 35.434 L 51.734 35.504 C 46.316 35.559 44.387 33.639 44.378 28.179 L 44.369 21.077 Z" style="fill: rgb(255, 255, 255); stroke-width: 7px; transform-origin: 55.246px 24.516px;"/></svg>