<?xml version="1.0" encoding="utf-8"?>
<svg viewBox="0 0 24 24" fill="none" xmlns="http://www.w3.org/2000/svg" width="24" height="24" xmlns:bx="https://boxy-svg.com"><defs><bx:export><bx:file format="svg" path="site icon.svg"/></bx:export></defs><path d="M 22.754 14.892 L 22.746 8.892 C 22.738 3.462 20.414 1.165 14.985 1.22 L 8.985 1.28 C 3.555 1.335 1.238 3.678 1.246 9.108 L 1.254 15.108 C 1.262 20.538 3.586 22.835 9.015 22.78 L 15.015 22.72 C 20.445 22.665 22.762 20.322 22.754 14.892 Z M 2.746 9.093 C 2.739 4.483 4.377 2.827 8.987 2.78 L 14.987 2.72 C 19.597 2.673 21.239 4.297 21.246 8.907 L 21.254 14.907 C 21.261 19.517 19.623 21.173 15.013 21.22 L 9.013 21.28 C 4.403 21.327 2.761 19.703 2.754 15.093 L 2.746 9.093 Z" style="transform-origin: 12px 12px; fill: rgb(255, 255, 255);"/><path d="M 19.257 15.507 C 19.256 15.097 18.916 14.76 18.506 14.765 L 14.606 14.804 C 14.196 14.808 13.857 15.151 13.857 15.561 C 13.858 15.971 14.198 16.308 14.608 16.304 L 18.508 16.265 C 18.918 16.26 19.258 15.917 19.257 15.507 Z" style="transform-origin: 12px 12px; fill: rgb(255, 255, 255);"/><path d="M 8.205 15.618 C 8.205 15.208 7.864 14.872 7.454 14.876 L 5.504 14.895 C 5.094 14.9 4.755 15.243 4.755 15.653 C 4.756 16.063 5.096 16.4 5.506 16.395 L 7.456 16.376 C 7.866 16.372 8.206 16.028 8.205 15.618 Z" style="transform-origin: 12px 12px; fill: rgb(255, 255, 255);"/><path d="M 13.404 15.567 C 13.401 13.717 11.899 12.232 10.049 12.251 C 8.2 12.269 6.703 13.784 6.705 15.634 C 6.708 17.484 8.21 18.969 10.059 18.951 C 11.909 18.932 13.407 17.407 13.404 15.567 Z M 8.205 15.619 C 8.204 14.599 9.033 13.761 10.052 13.751 C 11.071 13.74 11.903 14.562 11.904 15.582 C 11.906 16.602 11.077 17.44 10.057 17.451 C 9.038 17.461 8.207 16.629 8.205 15.619 Z" style="transform-origin: 12px 12px; fill: rgb(255, 255, 255);"/><path d="M 19.246 8.347 C 19.245 7.937 18.905 7.6 18.495 7.605 L 16.545 7.624 C 16.135 7.628 15.795 7.972 15.796 8.382 C 15.796 8.792 16.137 9.128 16.547 9.124 L 18.497 9.105 C 18.907 9.1 19.246 8.767 19.246 8.347 Z" style="transform-origin: 12px 12px; fill: rgb(255, 255, 255);"/><path d="M 10.145 8.439 C 10.144 8.029 9.804 7.692 9.394 7.696 L 5.494 7.735 C 5.084 7.74 4.744 8.083 4.745 8.493 C 4.746 8.903 5.086 9.24 5.496 9.235 L 9.396 9.196 C 9.806 9.192 10.145 8.859 10.145 8.439 Z" style="transform-origin: 12px 12px; fill: rgb(255, 255, 255);"/><path d="M 17.297 8.367 C 17.294 6.517 15.792 5.032 13.942 5.05 C 12.092 5.069 10.594 6.584 10.597 8.434 C 10.6 10.284 12.102 11.769 13.952 11.75 C 15.802 11.732 17.299 10.217 17.297 8.367 Z M 12.097 8.419 C 12.095 7.399 12.924 6.561 13.944 6.55 C 14.964 6.54 15.795 7.362 15.797 8.382 C 15.798 9.402 14.969 10.24 13.949 10.25 C 12.93 10.261 12.098 9.449 12.097 8.419 Z" style="transform-origin: 12px 12px; fill: rgb(255, 255, 255);"/></svg>